<svg width="21" height="20" viewBox="0 0 21 20" fill="none" xmlns="http://www.w3.org/2000/svg">
<path d="M4.7273 2.65578C4.72702 3.21237 4.50565 3.74606 4.11188 4.13943C3.71812 4.5328 3.18421 4.75364 2.62762 4.75336C2.07102 4.75309 1.53734 4.53171 1.14396 4.13795C0.75059 3.74418 0.529751 3.21027 0.53003 2.65368C0.530308 2.09709 0.75168 1.5634 1.14545 1.17003C1.53922 0.776652 2.07312 0.555813 2.62971 0.556092C3.18631 0.55637 3.71999 0.777742 4.11337 1.17151C4.50674 1.56528 4.72758 2.09918 4.7273 2.65578ZM4.79026 6.3074H0.592989V19.4449H4.79026V6.3074ZM11.4219 6.3074H7.24566V19.4449H11.38V12.5508C11.38 8.71034 16.3852 8.35357 16.3852 12.5508V19.4449H20.53V11.1238C20.53 4.64948 13.1218 4.89082 11.38 8.07026L11.4219 6.3074Z" fill="#3A3E64"/>
</svg>
