<svg width="20" height="21" viewBox="0 0 20 21" fill="none" xmlns="http://www.w3.org/2000/svg">
<path d="M7 11V2.5C7 2.10218 7.15804 1.72064 7.43934 1.43934C7.72064 1.15804 8.10218 1 8.5 1C8.89782 1 9.27936 1.15804 9.56066 1.43934C9.84196 1.72064 10 2.10218 10 2.5V10M10 9.5V7.5C10 7.10218 10.158 6.72064 10.4393 6.43934C10.7206 6.15804 11.1022 6 11.5 6C11.8978 6 12.2794 6.15804 12.5607 6.43934C12.842 6.72064 13 7.10218 13 7.5V10M13 8.5C13 8.10218 13.158 7.72064 13.4393 7.43934C13.7206 7.15804 14.1022 7 14.5 7C14.8978 7 15.2794 7.15804 15.5607 7.43934C15.842 7.72064 16 8.10218 16 8.5V10" stroke="#806B59" stroke-width="2" stroke-linecap="round" stroke-linejoin="round"/>
<path d="M16 9.50001C16 9.10218 16.1581 8.72065 16.4394 8.43935C16.7207 8.15804 17.1022 8.00001 17.5 8.00001C17.8978 8.00001 18.2794 8.15804 18.5607 8.43935C18.842 8.72065 19 9.10218 19 9.50001V14C19 15.5913 18.3679 17.1174 17.2427 18.2426C16.1174 19.3679 14.5913 20 13 20H11H11.208C10.2144 20.0002 9.2362 19.7536 8.3614 19.2823C7.4866 18.811 6.74253 18.1299 6.19602 17.3L6.00002 17C5.68802 16.5213 4.59268 14.612 2.71402 11.272C2.52247 10.9315 2.4713 10.5298 2.5714 10.1522C2.6715 9.77455 2.91496 9.45088 3.25002 9.25001C3.60705 9.03639 4.02512 8.94794 4.43808 8.99865C4.85103 9.04936 5.23528 9.23635 5.53002 9.53001L7.00002 11M1.54102 3.59401C2.30849 3.03306 3.13306 2.55474 4.00102 2.16701M13 1.45801C14.3025 1.80688 15.5448 2.35034 16.685 3.07001" stroke="#806B59" stroke-width="2" stroke-linecap="round" stroke-linejoin="round"/>
</svg>
